{
  "accessors": [
    {
      "bufferView": 2,
      "componentType": 5126,
      "count": 1977,
      "max": [
        3.9554481506347656,
        9.210038185119629,
        4.114360809326172
      ],
      "min": [
        -3.5922420024871826,
        -1.1353565454483032,
        -4.511356830596924
      ],
      "type": "VEC3"
    },
    {
      "bufferView": 2,
      "byteOffset": 23724,
      "componentType": 5126,
      "count": 1977,
      "max": [
        1.0,
        0.9989019632339478,
        0.9992080330848694
      ],
      "min": [
        -1.0,
        -0.9904161095619202,
        -0.9987521171569824
      ],
      "type": "VEC3"
    },
    {
      "bufferView": 1,
      "componentType": 5126,
      "count": 1977,
      "max": [
        0.625,
        0.6884399056434631
      ],
      "min": [
        0.375,
        0.3125
      ],
      "type": "VEC2"
    },
    {
      "bufferView": 0,
      "componentType": 5125,
      "count": 7218,
      "type": "SCALAR"
    },
    {
      "bufferView": 2,
      "byteOffset": 47448,
      "componentType": 5126,
      "count": 433,
      "max": [
        1.1458325386047363,
        7.474575042724609,
        2.4182755947113037
      ],
      "min": [
        -3.5769739151000977,
        1.4115142822265625,
        -4.511356830596924
      ],
      "type": "VEC3"
    },
    {
      "bufferView": 2,
      "byteOffset": 52644,
      "componentType": 5126,
      "count": 433,
      "max": [
        0.9996313452720642,
        0.9234256148338318,
        0.994522750377655
      ],
      "min": [
        -0.9964084625244141,
        -0.9997655153274536,
        -0.9975212216377258
      ],
      "type": "VEC3"
    },
    {
      "bufferView": 1,
      "byteOffset": 15816,
      "componentType": 5126,
      "count": 433,
      "max": [
        0.6249997615814209,
        0.6884399056434631
      ],
      "min": [
        0.375,
        0.3124999701976776
      ],
      "type": "VEC2"
    },
    {
      "bufferView": 0,
      "byteOffset": 28872,
      "componentType": 5125,
      "count": 1797,
      "type": "SCALAR"
    },
    {
      "bufferView": 2,
      "byteOffset": 57840,
      "componentType": 5126,
      "count": 1835,
      "max": [
        3.9554481506347656,
        8.782771110534668,
        3.3121392726898193
      ],
      "min": [
        -2.778499126434326,
        -0.37826186418533325,
        -4.511356830596924
      ],
      "type": "VEC3"
    },
    {
      "bufferView": 2,
      "byteOffset": 79860,
      "componentType": 5126,
      "count": 1835,
      "max": [
        1.0,
        0.9947046041488647,
        0.994522750377655
      ],
      "min": [
        -1.0,
        -0.9947047233581543,
        -0.9945260882377625
      ],
      "type": "VEC3"
    },
    {
      "bufferView": 1,
      "byteOffset": 19280,
      "componentType": 5126,
      "count": 1835,
      "max": [
        0.65625,
        1.0
      ],
      "min": [
        0.3437499701976776,
        -7.450580596923828e-08
      ],
      "type": "VEC2"
    },
    {
      "bufferView": 0,
      "byteOffset": 36060,
      "componentType": 5125,
      "count": 4722,
      "type": "SCALAR"
    },
    {
      "bufferView": 2,
      "byteOffset": 101880,
      "componentType": 5126,
      "count": 72,
      "max": [
        -0.4299638271331787,
        8.751588821411133,
        1.4595048427581787
      ],
      "min": [
        -1.1687135696411133,
        7.448977470397949,
        0.3460851311683655
      ],
      "type": "VEC3"
    },
    {
      "bufferView": 2,
      "byteOffset": 102744,
      "componentType": 5126,
      "count": 72,
      "max": [
        0.828629732131958,
        -0.15756627917289734,
        0.5371693968772888
      ],
      "min": [
        0.8286256790161133,
        -0.15757229924201965,
        0.5371637940406799
      ],
      "type": "VEC3"
    },
    {
      "bufferView": 1,
      "byteOffset": 33960,
      "componentType": 5126,
      "count": 72,
      "max": [
        0.625,
        0.3125
      ],
      "min": [
        0.375,
        0.3125
      ],
      "type": "VEC2"
    },
    {
      "bufferView": 0,
      "byteOffset": 54948,
      "componentType": 5125,
      "count": 210,
      "type": "SCALAR"
    },
    {
      "bufferView": 2,
      "byteOffset": 103608,
      "componentType": 5126,
      "count": 60,
      "max": [
        -3.1380770206451416,
        6.275973320007324,
        -4.165731430053711
      ],
      "min": [
        -3.502103805541992,
        5.91080379486084,
        -4.511356353759766
      ],
      "type": "VEC3"
    },
    {
      "bufferView": 2,
      "byteOffset": 104328,
      "componentType": 5126,
      "count": 60,
      "max": [
        0.5229503512382507,
        0.9018946290016174,
        0.9608917832374573
      ],
      "min": [
        -0.9219246506690979,
        -0.4806748330593109,
        -0.9615401029586792
      ],
      "type": "VEC3"
    },
    {
      "bufferView": 1,
      "byteOffset": 34536,
      "componentType": 5126,
      "count": 60,
      "max": [
        0.6166664361953735,
        0.6884398460388184
      ],
      "min": [
        0.375,
        0.6884398460388184
      ],
      "type": "VEC2"
    },
    {
      "bufferView": 0,
      "byteOffset": 55788,
      "componentType": 5125,
      "count": 180,
      "type": "SCALAR"
    },
    {
      "bufferView": 2,
      "byteOffset": 105048,
      "componentType": 5126,
      "count": 140,
      "max": [
        2.215963125228882,
        1.0297107696533203,
        1.445035457611084
      ],
      "min": [
        -1.8585035800933838,
        -0.3568738102912903,
        -2.9220681190490723
      ],
      "type": "VEC3"
    },
    {
      "bufferView": 2,
      "byteOffset": 106728,
      "componentType": 5126,
      "count": 140,
      "max": [
        -0.0908973291516304,
        0.9958598613739014,
        0.2322816550731659
      ],
      "min": [
        -0.5344380736351013,
        0.8449717164039612,
        -0.2322794646024704
      ],
      "type": "VEC3"
    },
    {
      "bufferView": 1,
      "byteOffset": 35016,
      "componentType": 5126,
      "count": 140,
      "max": [
        0.6178571581840515,
        0.6884398460388184
      ],
      "min": [
        0.375,
        0.6884398460388184
      ],
      "type": "VEC2"
    },
    {
      "bufferView": 0,
      "byteOffset": 56508,
      "componentType": 5125,
      "count": 729,
      "type": "SCALAR"
    },
    {
      "bufferView": 2,
      "byteOffset": 108408,
      "componentType": 5126,
      "count": 424,
      "max": [
        3.1962411403656006,
        6.3189616203308105,
        2.6347436904907227
      ],
      "min": [
        -0.16145849227905273,
        1.6089682579040527,
        -2.314724922180176
      ],
      "type": "VEC3"
    },
    {
      "bufferView": 2,
      "byteOffset": 113496,
      "componentType": 5126,
      "count": 424,
      "max": [
        0.9120913147926331,
        0.6402865052223206,
        0.5200486183166504
      ],
      "min": [
        -0.9318464398384094,
        -0.6835572719573975,
        -0.562874436378479
      ],
      "type": "VEC3"
    },
    {
      "bufferView": 1,
      "byteOffset": 36136,
      "componentType": 5126,
      "count": 424,
      "max": [
        0.65625,
        0.999842643737793
      ],
      "min": [
        0.3443790674209595,
        0.0001574009656906128
      ],
      "type": "VEC2"
    },
    {
      "bufferView": 0,
      "byteOffset": 59424,
      "componentType": 5125,
      "count": 1878,
      "type": "SCALAR"
    }
  ],
  "asset": {
    "extras": {
      "author": "DianaV.Mendoza (https://sketchfab.com/DianaV.Mendoza)",
      "license": "CC-BY-4.0 (http://creativecommons.org/licenses/by/4.0/)",
      "source": "https://sketchfab.com/3d-models/makeup-cosmetics-97038c2b5b7d44b1851ba9e33fbd20d7",
      "title": "Makeup & Cosmetics"
    },
    "generator": "Sketchfab-12.66.0",
    "version": "2.0"
  },
  "bufferViews": [
    {
      "buffer": 0,
      "byteLength": 66936,
      "name": "floatBufferViews",
      "target": 34963
    },
    {
      "buffer": 0,
      "byteLength": 39528,
      "byteOffset": 66936,
      "byteStride": 8,
      "name": "floatBufferViews",
      "target": 34962
    },
    {
      "buffer": 0,
      "byteLength": 118584,
      "byteOffset": 106464,
      "byteStride": 12,
      "name": "floatBufferViews",
      "target": 34962
    }
  ],
  "buffers": [
    {
      "byteLength": 225048,
      "uri": "scene.bin"
    }
  ],
  "materials": [
    {
      "doubleSided": true,
      "name": "Black",
      "pbrMetallicRoughness": {
        "baseColorFactor": [
          0.0,
          0.0,
          0.0,
          1.0
        ],
        "metallicFactor": 0.0,
        "roughnessFactor": 0.6
      }
    },
    {
      "doubleSided": true,
      "name": "blinn5",
      "pbrMetallicRoughness": {
        "baseColorFactor": [
          0.16125743140169999,
          0.0,
          0.009223925076177239,
          1.0
        ],
        "metallicFactor": 0.0,
        "roughnessFactor": 0.6
      }
    },
    {
      "doubleSided": true,
      "name": "Iron",
      "pbrMetallicRoughness": {
        "baseColorFactor": [
          0.16253967015177206,
          0.16253967015177206,
          0.16253967015177206,
          1.0
        ],
        "metallicFactor": 0.0,
        "roughnessFactor": 0.6
      }
    },
    {
      "doubleSided": true,
      "name": "lambert1",
      "pbrMetallicRoughness": {
        "baseColorFactor": [
          0.4,
          0.4,
          0.4,
          1.0
        ],
        "metallicFactor": 0.0,
        "roughnessFactor": 0.6
      }
    },
    {
      "doubleSided": true,
      "name": "Wood",
      "pbrMetallicRoughness": {
        "baseColorFactor": [
          0.3902,
          0.2211,
          0.0611,
          1.0
        ],
        "metallicFactor": 0.0,
        "roughnessFactor": 0.6
      }
    },
    {
      "doubleSided": true,
      "name": "Blush",
      "pbrMetallicRoughness": {
        "baseColorFactor": [
          0.6945204251015591,
          0.06254051655753909,
          0.06254051655753909,
          1.0
        ],
        "metallicFactor": 0.0,
        "roughnessFactor": 0.6
      }
    },
    {
      "alphaMode": "BLEND",
      "doubleSided": true,
      "name": "Crystal",
      "pbrMetallicRoughness": {
        "baseColorFactor": [
          0.03252,
          0.03252,
          0.03252,
          0.3614710366
        ],
        "metallicFactor": 0.0,
        "roughnessFactor": 0.6
      }
    }
  ],
  "meshes": [
    {
      "name": "pCylinder13_Black_0",
      "primitives": [
        {
          "attributes": {
            "NORMAL": 1,
            "POSITION": 0,
            "TEXCOORD_0": 2
          },
          "indices": 3,
          "material": 0,
          "mode": 4
        }
      ]
    },
    {
      "name": "pCylinder13_blinn5_0",
      "primitives": [
        {
          "attributes": {
            "NORMAL": 5,
            "POSITION": 4,
            "TEXCOORD_0": 6
          },
          "indices": 7,
          "material": 1,
          "mode": 4
        }
      ]
    },
    {
      "name": "pCylinder13_Iron_0",
      "primitives": [
        {
          "attributes": {
            "NORMAL": 9,
            "POSITION": 8,
            "TEXCOORD_0": 10
          },
          "indices": 11,
          "material": 2,
          "mode": 4
        }
      ]
    },
    {
      "name": "pCylinder13_lambert1_0",
      "primitives": [
        {
          "attributes": {
            "NORMAL": 13,
            "POSITION": 12,
            "TEXCOORD_0": 14
          },
          "indices": 15,
          "material": 3,
          "mode": 4
        }
      ]
    },
    {
      "name": "pCylinder13_Wood_0",
      "primitives": [
        {
          "attributes": {
            "NORMAL": 17,
            "POSITION": 16,
            "TEXCOORD_0": 18
          },
          "indices": 19,
          "material": 4,
          "mode": 4
        }
      ]
    },
    {
      "name": "pCylinder13_Blush_0",
      "primitives": [
        {
          "attributes": {
            "NORMAL": 21,
            "POSITION": 20,
            "TEXCOORD_0": 22
          },
          "indices": 23,
          "material": 5,
          "mode": 4
        }
      ]
    },
    {
      "name": "pCylinder13_Crystal_0",
      "primitives": [
        {
          "attributes": {
            "NORMAL": 25,
            "POSITION": 24,
            "TEXCOORD_0": 26
          },
          "indices": 27,
          "material": 6,
          "mode": 4
        }
      ]
    }
  ],
  "nodes": [
    {
      "children": [
        1
      ],
      "matrix": [
        1.0,
        0.0,
        0.0,
        0.0,
        0.0,
        2.220446049250313e-16,
        -1.0,
        0.0,
        0.0,
        1.0,
        2.220446049250313e-16,
        0.0,
        0.0,
        0.0,
        0.0,
        1.0
      ],
      "name": "Sketchfab_model"
    },
    {
      "children": [
        2
      ],
      "matrix": [
        1.0,
        0.0,
        0.0,
        0.0,
        0.0,
        0.0,
        1.0,
        0.0,
        0.0,
        -1.0,
        0.0,
        0.0,
        0.0,
        0.0,
        0.0,
        1.0
      ],
      "name": "962dd6dcd5d745bbb4fa4f87645c247a.fbx"
    },
    {
      "children": [
        3
      ],
      "name": "RootNode"
    },
    {
      "children": [
        4,
        5,
        6,
        7,
        8,
        9,
        10
      ],
      "name": "pCylinder13"
    },
    {
      "mesh": 0,
      "name": "pCylinder13_Black_0"
    },
    {
      "mesh": 1,
      "name": "pCylinder13_blinn5_0"
    },
    {
      "mesh": 2,
      "name": "pCylinder13_Iron_0"
    },
    {
      "mesh": 3,
      "name": "pCylinder13_lambert1_0"
    },
    {
      "mesh": 4,
      "name": "pCylinder13_Wood_0"
    },
    {
      "mesh": 5,
      "name": "pCylinder13_Blush_0"
    },
    {
      "mesh": 6,
      "name": "pCylinder13_Crystal_0"
    }
  ],
  "scene": 0,
  "scenes": [
    {
      "name": "Sketchfab_Scene",
      "nodes": [
        0
      ]
    }
  ]
}
